<svg xmlns="http://www.w3.org/2000/svg" viewBox="0 0 350 350"><path d="M20.56,299.58c0-32.9,22.21-51,48.12-51s48.12,18.1,48.12,51-22.21,51-48.12,51S20.56,332.48,20.56,299.58Zm79,.41c0-26.73-13.16-40.3-30.85-40.3S37.84,273.26,37.84,300c0,26.32,13.16,39.89,30.84,39.89S99.53,326.31,99.53,300Zm198.23-2.88v-.41c12.34-2.47,20.15-9.05,20.15-21.8,0-18.09-13.57-25.49-35.78-25.49H242.24v9h6.17a5.24,5.24,0,0,1,4.52,4.53v72.38a5.23,5.23,0,0,1-4.52,4.52h-6.17v9.46h41.53c23,0,38.66-9,38.66-28.37C322,306.57,312.56,299.17,297.76,297.11ZM269,259.69h12.34c13.16,0,19.74,4.11,19.74,16.45,0,11.92-6.58,16.45-19.74,16.45H269Zm14,80.19H269V302.46h13.57c16,0,22.21,5.35,22.21,18.09S298.17,339.88,283,339.88Zm-148-76.08a6.6,6.6,0,0,0-5.76-4.52h-3.29v-9.46H164.1v9.46H151.35l25.08,74.44h.41l22.62-65.4c2.06-6.17.83-9.46-4.52-9.46h-6.17v-9.45h35v9.45h-3.29a6.55,6.55,0,0,0-6.17,4.94L183,349.75H164.92ZM317.91,1c-23.85,15.22-50.59,30-79.38,44.42V216.09h79V1ZM212.63,57.75c-13.58,6.17-28,12.34-42.37,18.1-12.33,4.94-24.67,9.87-37,14V215.68h79V57.75ZM106.93,99.29c-27.14,9-53.88,16.45-79,22.62v94.18h79V99.29Z" fill="rgb(0,58,101)" /></svg>